#!OML:ASF F:\VICON\USERDATA\INSTALL\rory3\rory3.ASF
:FULLY-SPECIFIED
:DEGREES
45
root -0.5281226370858203 17.773004388603002 17.231303709360255 -2.3577920413842284 -0.16516200602121556 -6.343026839044148
lfemur -22.961026012155727 0.13455729037159614 -12.766399643712425
ltibia 54.696264594630215
lfoot -4.804951533294097 -1.2180794638439434
ltoes -9.856269787658603
rfemur -3.727777951513163 7.035724000610353 33.82069385030168
rtibia 32.81002528665265
rfoot -6.076099458002002 -4.526742223776196
rtoes 9.041726154641315
lowerback 9.969797647482384 1.138973020986392 5.961483385042876
upperback 0.45453093752243 2.594721807329639 2.473578446581812
thorax -4.963993785979251 1.224873071044198 -1.1297068576855622
lowerneck -15.762163797572953 -2.900866182778557 -2.573142573070681
upperneck 21.273601313363894 -3.651322110979639 1.184911376711194
head 9.357243378707857 -1.771167403208984 0.4242642354881283
lclavicle -1.9569254980221514e-15 9.03437832758112e-16
lhumerus -32.966723451959 2.1648425544820906 82.57367377066079
lradius 26.054866551668525
lwrist 4.7796338927252915
lhand -26.46809538212055 24.000070615070488
lfingers 7.12502
lthumb 0.2739247135828822 54.323704097720764
rclavicle -1.951643223900184e-15 9.078360124322705e-16
rhumerus -25.899772765754513 -10.59804276176775 -82.54545339368148
rradius 28.16404659327128
rwrist 0.8847091982290216
rhand -17.326717913478284 22.140647132406205
rfingers 7.12502
rthumb 8.909190089900562 -7.766423710951661
46
root -0.4253893067481544 17.483055176861125 17.437392465214895 -2.097796113041612 -0.6985769892239058 -7.10526600866001
lfemur -23.44780199468765 0.5599022844958008 -11.726442985344113
ltibia 47.29592078254149
lfoot -4.89151173780329 -0.8008024932841711
ltoes -9.35550747662344
rfemur -2.1342887071536545 7.513142393052874 34.90209823054149
rtibia 32.64880114048126
rfoot -5.012480512634308 -5.596485823228526
rtoes 8.086190806171953
lowerback 10.01822663385633 1.5831693574382906 6.865822533124236
upperback 0.4804096723026318 3.255911606961623 2.4922684200462317
thorax -4.873047274782895 1.5495256487298765 -1.7144496322924763
lowerneck -15.827585995570784 -2.8908653050191044 -2.360991285883671
upperneck 21.02432781536362 -3.6658777534521376 1.0760419079189336
head 9.27883740353015 -1.770192985652009 0.3527069575109172
lclavicle -1.9570217978870338e-15 9.033459749902482e-16
lhumerus -33.69179783397818 2.7930809879683594 82.46571479736306
lradius 25.640794813472912
lwrist 4.967395144282851
lhand -26.379171150518737 23.724961064710115
lfingers 7.12502
lthumb 0.3738388567416625 54.12962536894792
rclavicle -1.9505286837204073e-15 9.088529599576512e-16
rhumerus -25.159123982290218 -9.305886168020317 -82.79848854775813
rradius 29.171976136640474
rwrist 0.030402019342806064
rhand -17.562159860805863 22.523457715505742
rfingers 7.12502
rthumb 8.69310565750646 -7.400806720516759
47
root -0.3414024777829812 17.447675721867565 18.157751715510514 -1.7602045433158993 -1.4058091579701353 -7.676491058036833
lfemur -23.538845141781195 0.2841657409296996 -10.853666567875662
ltibia 38.27415587186042
lfoot -4.7281042129245705 -0.3018790069119449
ltoes -9.224764301596753
rfemur -0.049744315646041315 7.6133968642797445 35.34590242380529
rtibia 31.652938521898086
rfoot -4.127425875491382 -7.382484894170867
rtoes 6.191351993144163
lowerback 9.506479512516488 1.9963531483982866 7.698879939957165
upperback 0.5221222407092198 3.8280240817171824 2.5069266746670773
thorax -4.693654066686765 1.8360831735039587 -2.122034742232344
lowerneck -16.00884528153967 -2.8902176770038377 -2.197258379423409
upperneck 20.88798295143423 -3.675103618367586 0.9694704940884495
head 9.254155529549505 -1.7693434872032223 0.2756187148357898
lclavicle -1.9571075055421687e-15 9.032575455545279e-16
lhumerus -34.45044136785833 3.428743212042712 82.32756498895502
lradius 25.280460095757874
lwrist 5.006094245540309
lhand -26.287300473438695 23.535117236443067
lfingers 7.12502
lthumb 0.43217434711151226 53.9320105537093
rclavicle -1.950274226151304e-15 9.091373315219686e-16
rhumerus -24.591359043166985 -8.894435109634768 -82.84117872401345
rradius 29.736745829322672
rwrist -0.08901593014866638
rhand -17.731272731684378 23.331321286522186
rfingers 7.12502
rthumb 8.556947180960144 -6.653158878722175
48
root -0.26523564384745163 17.307274095218027 19.762196840511567 -1.7955415930822745 -1.6455830906938853 -7.592673675887228
lfemur -23.18662959182206 -0.9571240654009994 -10.3812952293408
ltibia 28.827690118031867
lfoot -4.330455793241531 -0.4849470588352934
ltoes -9.316819907269325
rfemur 2.001187199935444 7.235231083259188 35.11395815054291
rtibia 30.508877349908946
rfoot -3.008257242512393 -8.997637003415544
rtoes 4.149580153281528
lowerback 9.077480331624555 2.256309625766268 7.79596190250871
upperback 0.45665648485791255 4.140447913514789 2.425006750336136
thorax -4.59467548552337 2.012365721459034 -2.3235492075856974
lowerneck -16.08940465126086 -2.880908068714239 -2.0266291582820157
upperneck 20.672587053229027 -3.671133998042052 0.8197663119738575
head 9.178115282922787 -1.7631908236286127 0.17843593294175875
lclavicle -1.957035404264144e-15 9.03342129061417e-16
lhumerus -35.13545797166284 4.13289275715436 82.14478392239243
lradius 24.910901245617513
lwrist 5.026798563171247
lhand -26.153890565078648 23.47791200927819
lfingers 7.12502
lthumb 0.46685062137313116 53.77280911601476
rclavicle -1.951060662684271e-15 9.083929949143169e-16
rhumerus -24.30251297426704 -9.294356414675917 -82.77776143714959
rradius 29.941891014960504
rwrist 0.14298934178823952
rhand -17.79124649493772 23.88159809596359
rfingers 7.12502
rthumb 8.531882478147073 -6.1067210995088175
49
root -0.13911070222588423 17.375460098830473 20.60247456994816 -1.5521046540001735 -1.3908306768514298 -7.068036653668726
lfemur -22.579604813052136 -2.561746660428161 -10.477411957572352
ltibia 21.339105902653383
lfoot -3.5395813005198167 0.006831574877827484
ltoes -9.433353773439237
rfemur 3.820801967719504 6.384106476204866 34.09600811435875
rtibia 30.103251511973134
rfoot -1.9884782234738632 -9.698510585471514
rtoes 2.5458497633421593
lowerback 8.234633920113795 2.216808822629516 7.269429840937697
upperback 0.4365736694710497 4.093611669379613 2.198828342605327
thorax -4.48383593969895 2.0334540381963255 -2.305921061124829
lowerneck -16.164546170167895 -2.884882679370526 -1.9058950479865298
upperneck 20.449675102350906 -3.691105765454108 0.7632693309372097
head 9.108186586442274 -1.7621178070977768 0.11683004714563772
lclavicle -1.9570346146654012e-15 9.033412144027301e-16
lhumerus -35.66549210721197 4.924063020367599 81.90808932347912
lradius 24.44360658961754
lwrist 4.934452655647606
lhand -25.96255403276946 23.662832983114946
lfingers 7.12502
lthumb 0.5383425784952927 53.78476539085648
rclavicle -1.9518482793008155e-15 9.076683032632339e-16
rhumerus -24.25667698867285 -10.241602112663625 -82.64031158636995
rradius 29.80484501359811
rwrist 0.522447547476319
rhand -17.809609023327496 23.941671736756096
rfingers 7.12502
rthumb 8.509850006379475 -5.977420724378556
50
root -0.040374606741144625 17.278245200342685 21.619624640802613 -2.0478231420585162 -1.6583240221434912 -6.650538138365752
lfemur -22.380834862890538 -3.660729813303595 -10.921866095533703
ltibia 17.90034424018111
lfoot -3.0963171472547977 -0.6474843350226083
ltoes -10.866264100036483
rfemur 4.670911221970453 5.902936463531968 33.2776969032457
rtibia 31.553441570959528
rfoot -1.033296196513306 -9.47399347093302
rtoes 2.017000729359579
lowerback 8.265816948157939 2.1918134889152014 6.807149581158864
upperback 0.2976385640505359 3.9798108694193846 1.9387688977194926
thorax -4.551549094617453 1.9779222663224127 -2.2768262880983428
lowerneck -16.13913109360483 -2.8774467002796267 -1.783984704526972
upperneck 20.272470174034737 -3.703798586352657 0.718282460669075
head 9.055810511631694 -1.7572941327231835 0.06108536419048188
lclavicle -1.956959269464323e-15 9.034064764659584e-16
lhumerus -36.07127752957619 5.753126643936558 81.5876336942097
lradius 23.820408430091774
lwrist 4.572283078533277
lhand -25.809507630556787 23.889751268185908
lfingers 7.12502
lthumb 0.6518635741932126 53.92763098013902
rclavicle -1.952929165918928e-15 9.066206963054753e-16
rhumerus -24.42128910390215 -11.424808935221638 -82.4301681653727
rradius 29.391082565844634
rwrist 1.0127881961376097
rhand -17.827312804892852 23.806370729749197
rfingers 7.12502
rthumb 8.45805796863194 -6.086234333309752
51
root 0.11714491276996675 17.204729731918007 21.702173244046037 -2.5245136271078676 -2.0780034466715627 -5.538713610357796
lfemur -22.660771479153787 -3.8523557168844302 -12.824773422203666
ltibia 19.074520058942255
lfoot -1.9071344555100427 -1.9322547162662431
ltoes -10.960824396428393
rfemur 4.450992496057321 5.879183932449488 31.7124295004692
rtibia 34.96495435449771
rfoot -0.38331154334318374 -9.051143827603642
rtoes 2.5406284756986146
lowerback 8.642516715118623 2.2654973974255124 5.849138396917329
upperback 0.2910583371236901 3.90310896848105 1.6031660443211286
thorax -4.580384541170663 1.9431447145304857 -2.1499039522702614
lowerneck -16.091009508019088 -2.8861636213407507 -1.7496787747179874
upperneck 20.175213812341784 -3.740406197157493 0.7639509266741148
head 9.03588675253191 -1.7613139921667158 0.04280952734360233
lclavicle -1.9568969260558143e-15 9.034546762028571e-16
lhumerus -36.21151933565993 6.612995537139292 81.31835411715606
lradius 22.976749432137012
lwrist 3.857608103117635
lhand -25.630583811137186 24.177410206268558
lfingers 7.12502
lthumb 0.7980125797207627 54.086627263540954
rclavicle -1.953620992450794e-15 9.059613117894375e-16
rhumerus -24.77378902896596 -12.641271586439167 -82.16263910221471
rradius 28.798737512320862
rwrist 1.711871203863513
rhand -17.842876856435876 23.59966863951277
rfingers 7.12502
rthumb 8.432520510600426 -6.259323797576611
